<svg width="18" height="22" viewBox="0 0 18 22" fill="none" xmlns="http://www.w3.org/2000/svg">
<path d="M9 0C4.44359 0 0.75 3.69359 0.75 8.25C0.75 10.2018 1.61006 11.9182 2.56191 13.4062L8.439 21.7099C8.56791 21.8921 8.77725 22 9 22C9.22275 22 9.43209 21.8921 9.561 21.7099L15.4381 13.4062C16.3477 12.1818 17.25 10.2018 17.25 8.25C17.25 3.69359 13.5564 0 9 0ZM9 13.0625C6.34212 13.0625 4.1875 10.9079 4.1875 8.25C4.1875 5.59212 6.34212 3.4375 9 3.4375C11.6579 3.4375 13.8125 5.59212 13.8125 8.25C13.8125 10.9079 11.6579 13.0625 9 13.0625Z" fill="#656565"/>
</svg>
