<svg width="34" height="34" viewBox="0 0 34 34" fill="none" xmlns="http://www.w3.org/2000/svg">
<path opacity="0.967" fill-rule="evenodd" clip-rule="evenodd" d="M3.51953 0C4.00651 0 4.49349 0 4.98047 0C7.02811 0.476343 8.2013 1.7602 8.5 3.85156C9.61582 4.008 10.7226 4.20721 11.8203 4.44922C11.6908 5.14893 11.558 5.84619 11.4219 6.54102C10.3978 6.37959 9.36846 6.21357 8.33398 6.04297C8.25649 6.0651 8.17906 6.08724 8.10156 6.10938C7.85931 6.62837 7.52728 7.08216 7.10547 7.4707C6.70517 7.78129 6.28463 8.058 5.84375 8.30078C6.56877 14.0345 7.29924 19.7676 8.03516 25.5C9.40014 25.7478 10.4515 26.4561 11.1895 27.625C15.2469 26.5418 19.3087 25.4793 23.375 24.4375C23.5038 22.0878 24.7212 20.6822 27.0273 20.2207C27.4192 17.7062 27.7734 15.1828 28.0898 12.6504C28.0677 12.5729 28.0456 12.4955 28.0234 12.418C26.5484 11.7052 25.7073 10.532 25.5 8.89844C24.2812 8.70639 23.0638 8.50717 21.8477 8.30078C21.9727 7.59488 22.0833 6.88653 22.1797 6.17578C23.3448 6.32753 24.5069 6.50461 25.666 6.70703C25.7435 6.68492 25.8209 6.66276 25.8984 6.64062C26.8569 4.87741 28.3399 4.09161 30.3477 4.2832C32.3134 4.66731 33.5309 5.82942 34 7.76953C34 8.25649 34 8.74351 34 9.23047C33.5535 11.1932 32.336 12.3553 30.3477 12.7168C29.9558 15.2313 29.6016 17.7547 29.2852 20.2871C29.3073 20.3646 29.3294 20.442 29.3516 20.5195C31.2418 21.4882 32.0719 23.0377 31.8418 25.168C31.1959 27.6889 29.569 28.8511 26.9609 28.6543C26.3415 28.5437 25.766 28.3223 25.2344 27.9902C24.7093 27.5649 24.2445 27.089 23.8398 26.5625C19.7874 27.6115 15.7476 28.6962 11.7207 29.8164C11.525 32.0259 10.3629 33.4204 8.23438 34C7.72524 34 7.21617 34 6.70703 34C4.80431 33.5692 3.6422 32.3961 3.2207 30.4805C2.99112 28.3158 3.84333 26.7553 5.77734 25.7988C5.12225 20.0597 4.42498 14.3156 3.68555 8.56641C2.31066 8.25523 1.24816 7.50264 0.498047 6.30859C0.270339 5.85738 0.104324 5.39253 0 4.91406C0 4.44922 0 3.98438 0 3.51953C0.442709 1.61588 1.61588 0.442709 3.51953 0ZM3.78516 2.19141C4.92014 2.05579 5.72808 2.4985 6.20898 3.51953C6.5258 4.75593 6.11629 5.65241 4.98047 6.20898C3.60501 6.5342 2.68639 6.03616 2.22461 4.71484C2.08947 3.45613 2.60965 2.61499 3.78516 2.19141ZM29.2852 6.44141C30.5596 6.29743 31.3897 6.82869 31.7754 8.03516C31.875 9.79492 31.0449 10.625 29.2852 10.5254C28.0685 10.1407 27.5483 9.31062 27.7246 8.03516C27.9464 7.20468 28.4666 6.67343 29.2852 6.44141ZM27.1602 22.3789C28.9184 22.3109 29.7485 23.1521 29.6504 24.9023C29.2657 26.119 28.4356 26.6392 27.1602 26.4629C25.9435 26.0782 25.4233 25.2481 25.5996 23.9727C25.822 23.1416 26.3422 22.6103 27.1602 22.3789ZM6.97266 27.6914C8.73089 27.6234 9.56097 28.4646 9.46289 30.2148C9.07906 31.4312 8.24898 31.9514 6.97266 31.7754C5.78905 31.3681 5.26887 30.538 5.41211 29.2852C5.63509 28.4536 6.15528 27.9223 6.97266 27.6914Z" fill="#424242"/>
<path opacity="0.935" fill-rule="evenodd" clip-rule="evenodd" d="M13.8125 4.71484C14.4932 4.85046 15.1794 4.97221 15.8711 5.08008C15.9248 5.1005 15.969 5.13371 16.0039 5.17969C15.8816 5.85863 15.7488 6.53376 15.6055 7.20508C14.8944 7.14199 14.186 7.04238 13.4805 6.90625C13.5839 6.17467 13.6946 5.4442 13.8125 4.71484Z" fill="#424242"/>
<path opacity="0.935" fill-rule="evenodd" clip-rule="evenodd" d="M17.9961 5.44531C18.7254 5.56318 19.4559 5.67386 20.1875 5.77734C20.0553 6.50441 19.9446 7.23489 19.8555 7.96875C19.1284 7.83654 18.3979 7.72584 17.6641 7.63672C17.7819 6.90738 17.8926 6.17689 17.9961 5.44531Z" fill="#424242"/>
</svg>
