<svg width="34" height="34" viewBox="0 0 34 34" fill="none" xmlns="http://www.w3.org/2000/svg">
<path opacity="0.985" fill-rule="evenodd" clip-rule="evenodd" d="M6.24243 0C7.43775 0 8.63306 0 9.82837 0C12.0321 0.499224 13.4045 1.84949 13.9456 4.05078C15.9018 4.49063 17.1967 5.6638 17.8303 7.57031C17.9813 8.35889 18.0366 9.15576 17.9963 9.96094C14.676 9.96094 11.3557 9.96094 8.0354 9.96094C7.75317 7.39254 8.74927 5.52212 11.0237 4.34961C11.2847 4.2515 11.5503 4.17402 11.8206 4.11719C11.465 3.04242 10.7345 2.36729 9.62915 2.0918C8.56665 1.95898 7.50415 1.95898 6.44165 2.0918C4.97368 2.49733 4.18787 3.46022 4.08423 4.98047C4.05103 8.07932 4.03996 11.1783 4.05103 14.2773C3.38696 14.2773 2.7229 14.2773 2.05884 14.2773C2.04777 10.8906 2.05884 7.50384 2.09204 4.11719C2.43358 2.36092 3.41861 1.11027 5.04712 0.365234C5.44685 0.221438 5.84528 0.0996931 6.24243 0Z" fill="#424242"/>
<path opacity="0.996" fill-rule="evenodd" clip-rule="evenodd" d="M21.4495 14.2771C22.4679 14.266 23.4862 14.2771 24.5042 14.3103C25.2457 14.5206 25.7216 14.9965 25.9319 15.738C25.9651 18.2392 25.9762 20.7406 25.9651 23.242C23.9729 23.242 21.9807 23.242 19.9885 23.242C19.9774 20.7406 19.9885 18.2392 20.0217 15.738C20.2442 14.9955 20.7201 14.5085 21.4495 14.2771Z" fill="#424242"/>
<path opacity="0.997" fill-rule="evenodd" clip-rule="evenodd" d="M0 18.7927C0 18.4386 0 18.0844 0 17.7302C0.231384 17.0009 0.718363 16.525 1.46094 16.3025C6.97259 16.2693 12.4843 16.2582 17.9961 16.2693C17.9961 17.5974 17.9961 18.9255 17.9961 20.2537C12.4843 20.2648 6.97259 20.2537 1.46094 20.2205C0.718363 19.998 0.231384 19.5221 0 18.7927Z" fill="#424242"/>
<path opacity="0.99" fill-rule="evenodd" clip-rule="evenodd" d="M34 17.7302C34 18.0844 34 18.4386 34 18.7927C33.7686 19.5221 33.2816 19.998 32.5391 20.2205C31.0119 20.2537 29.4845 20.2648 27.957 20.2537C27.957 18.9255 27.957 17.5974 27.957 16.2693C29.4845 16.2582 31.0119 16.2693 32.5391 16.3025C33.2816 16.525 33.7686 17.0009 34 17.7302Z" fill="#424242"/>
<path opacity="0.995" fill-rule="evenodd" clip-rule="evenodd" d="M28.3557 34C28.2893 34 28.2229 34 28.1565 34C27.5723 33.3826 26.9746 32.7738 26.3635 32.1738C20.1213 32.2181 13.8791 32.2181 7.63696 32.1738C7.02589 32.7738 6.42821 33.3826 5.84399 34C5.77759 34 5.71118 34 5.64477 34C5.2035 33.5365 4.76079 33.0716 4.31665 32.6055C4.71509 32.1849 5.11352 31.7643 5.51196 31.3438C3.61236 30.159 2.47239 28.4545 2.09204 26.2305C2.05884 24.9025 2.04777 23.5744 2.05884 22.2461C7.37134 22.2461 12.6838 22.2461 17.9963 22.2461C17.9963 23.2422 17.9963 24.2383 17.9963 25.2344C21.3166 25.2344 24.637 25.2344 27.9573 25.2344C27.9573 24.2383 27.9573 23.2422 27.9573 22.2461C29.2854 22.2461 30.6135 22.2461 31.9416 22.2461C31.9527 23.5744 31.9416 24.9025 31.9084 26.2305C31.5281 28.4545 30.3881 30.159 28.4885 31.3438C28.887 31.7643 29.2854 32.1849 29.6838 32.6055C29.2397 33.0716 28.797 33.5365 28.3557 34Z" fill="#424242"/>
</svg>
