<svg width="34" height="34" viewBox="0 0 34 34" fill="none" xmlns="http://www.w3.org/2000/svg">
<path opacity="0.905" fill-rule="evenodd" clip-rule="evenodd" d="M26.3895 5.00444C27.4092 4.99259 28.4287 5.00445 29.4479 5.04C29.7139 5.16361 29.9392 5.34142 30.1235 5.57343C30.5236 7.05231 30.8318 8.54591 31.0482 10.0542C30.9839 10.1397 30.901 10.199 30.7992 10.232C30.2307 10.2676 29.6617 10.2794 29.0923 10.2676C29.0923 11.2159 29.0923 12.1643 29.0923 13.1126C30.6334 13.1007 32.1745 13.1126 33.7153 13.1481C33.8457 13.1837 33.9287 13.2667 33.9642 13.3971C34.0117 16.9296 34.0117 20.462 33.9642 23.9945C33.9179 24.1526 33.8112 24.2356 33.6442 24.2435C33.1938 24.2909 32.7433 24.2909 32.2928 24.2435C32.1911 24.2104 32.1081 24.1511 32.0439 24.0656C32.0823 22.8969 31.5489 22.1501 30.4436 21.8252C29.7561 21.8016 29.0686 21.7778 28.381 21.7541C28.0965 21.5171 28.0965 21.2799 28.381 21.0429C29.9693 21.0073 31.5577 20.9954 33.1463 21.0073C33.1463 19.9641 33.1463 18.921 33.1463 17.8779C31.3206 17.8897 29.4952 17.8779 27.6698 17.8423C27.4801 17.6053 27.4801 17.3681 27.6698 17.1311C29.4952 17.0955 31.3206 17.0836 33.1463 17.0955C33.1463 16.0523 33.1463 15.0092 33.1463 13.9661C30.1353 13.9779 27.1244 13.9661 24.1136 13.9305C23.7343 13.6697 23.7343 13.4089 24.1136 13.1481C24.9667 13.1126 25.8202 13.1007 26.674 13.1126C26.674 12.1643 26.674 11.2159 26.674 10.2676C26.1046 10.2794 25.5356 10.2676 24.9671 10.232C24.8027 10.1572 24.7079 10.0269 24.6826 9.84087C24.9913 8.43994 25.3114 7.04115 25.6427 5.64456C25.8209 5.33793 26.0698 5.12456 26.3895 5.00444ZM26.6029 5.78681C27.4568 5.77493 28.3102 5.78681 29.1634 5.82237C29.2285 5.84897 29.2878 5.88453 29.3412 5.92905C29.6472 7.08218 29.9199 8.24385 30.1591 9.41412C28.6655 9.41412 27.1719 9.41412 25.6783 9.41412C25.8805 8.32003 26.1058 7.22948 26.354 6.14242C26.4249 6.01277 26.5079 5.8942 26.6029 5.78681ZM27.5275 10.2676C27.7883 10.2676 28.0491 10.2676 28.3099 10.2676C28.3099 11.2159 28.3099 12.1643 28.3099 13.1126C28.0491 13.1126 27.7883 13.1126 27.5275 13.1126C27.5275 12.1643 27.5275 11.2159 27.5275 10.2676ZM32.0795 21.8608C32.4212 21.7906 32.7768 21.7669 33.1463 21.7897C33.1463 22.335 33.1463 22.8802 33.1463 23.4255C33.0278 23.4255 32.9093 23.4255 32.7907 23.4255C32.7578 22.803 32.5207 22.2814 32.0795 21.8608Z" fill="#424242"/>
<path opacity="0.909" fill-rule="evenodd" clip-rule="evenodd" d="M6.68844 7.99152C11.3353 7.97964 15.9821 7.99152 20.6287 8.02708C21.5105 8.22132 22.0676 8.75475 22.3001 9.62737C22.3238 10.4809 22.3476 11.3343 22.3713 12.1878C23.0865 12.8912 23.2999 13.721 23.0114 14.6772C22.9555 14.8042 22.8726 14.9109 22.7624 14.9972C24.1981 15.8393 25.4902 16.8706 26.6387 18.0911C26.9034 18.4307 27.093 18.8101 27.2077 19.2291C27.2883 20.8269 27.3239 22.4272 27.3144 24.03C27.314 25.5147 27.2903 26.9965 27.2433 28.4752C27.2059 28.5244 27.1585 28.56 27.101 28.5819C26.4338 28.6392 25.7699 28.6274 25.1095 28.5463C24.9435 28.0017 24.7657 27.4564 24.5761 26.9105C24.1747 26.0822 23.5464 25.5014 22.6913 25.1679C19.6836 25.0857 16.6727 25.0502 13.6586 25.0613C10.6445 25.0502 7.63354 25.0857 4.62585 25.1679C3.69121 25.5336 3.03924 26.1856 2.66994 27.1238C2.51556 27.613 2.36145 28.099 2.20763 28.5819C1.54381 28.6293 0.879986 28.6293 0.216165 28.5819C0.156898 28.5226 0.0976229 28.4633 0.0383553 28.4041C-0.0304144 25.3672 -0.00670878 22.3325 0.109479 19.3002C0.212545 18.9518 0.354793 18.6199 0.536223 18.3045C1.70662 16.9914 3.04612 15.889 4.55472 14.9972C4.4212 14.8371 4.31452 14.6593 4.23467 14.4638C4.07244 13.5757 4.30952 12.817 4.94591 12.1878C4.96961 11.3343 4.99332 10.4809 5.01703 9.62737C5.2864 8.77701 5.84355 8.23177 6.68844 7.99152ZM6.97294 8.77388C11.4301 8.762 15.8872 8.77388 20.3442 8.80944C20.8602 8.88355 21.2277 9.15617 21.4467 9.62737C21.5595 10.3096 21.5832 10.9971 21.5178 11.69C21.1449 11.5226 20.7537 11.4159 20.3442 11.3699C18.6847 11.3225 17.0251 11.3225 15.3656 11.3699C14.6691 11.5811 14.1001 11.9722 13.6586 12.5434C13.2262 11.9593 12.6572 11.5681 11.9516 11.3699C10.2921 11.3225 8.63247 11.3225 6.97294 11.3699C6.56348 11.4159 6.1723 11.5226 5.79939 11.69C5.75197 11.0973 5.75197 10.5045 5.79939 9.91186C5.95501 9.28398 6.34619 8.9046 6.97294 8.77388ZM7.32856 12.1167C8.75125 12.1048 10.1737 12.1167 11.596 12.1523C12.8407 12.4944 13.3859 13.3123 13.2318 14.606C10.6239 14.6179 8.01597 14.606 5.40821 14.5705C5.12372 14.4519 4.98147 14.2385 4.98147 13.9304C5.06284 13.2085 5.44217 12.7106 6.11945 12.4368C6.52308 12.2945 6.92614 12.1878 7.32856 12.1167ZM15.7212 12.1167C17.1439 12.1048 18.5663 12.1167 19.9886 12.1523C20.8329 12.1777 21.5323 12.4977 22.0868 13.1124C22.3476 13.5257 22.3831 13.9524 22.1935 14.3927C22.1106 14.4698 22.0158 14.529 21.909 14.5705C19.3012 14.606 16.6933 14.6179 14.0853 14.606C13.9756 13.329 14.5209 12.4993 15.7212 12.1167ZM5.40821 15.4595C10.9085 15.4476 16.4087 15.4595 21.909 15.4951C23.479 16.3292 24.8659 17.4079 26.0697 18.7312C26.2078 18.9836 26.3263 19.2443 26.4253 19.5136C26.4609 20.0346 26.4727 20.5562 26.4609 21.0783C17.926 21.0783 9.39115 21.0783 0.85628 21.0783C0.844452 20.5799 0.856309 20.082 0.891842 19.5847C0.976878 19.2488 1.11913 18.9405 1.31859 18.6601C2.55134 17.4116 3.91454 16.3447 5.40821 15.4595ZM0.85628 21.9318C9.39115 21.9318 17.926 21.9318 26.4609 21.9318C26.4609 22.7142 26.4609 23.4965 26.4609 24.2789C17.926 24.2789 9.39115 24.2789 0.85628 24.2789C0.85628 23.4965 0.85628 22.7142 0.85628 21.9318ZM0.85628 25.0613C1.59161 25.0494 2.32655 25.0613 3.06112 25.0968C2.32474 25.8463 1.83872 26.7354 1.60308 27.764C1.36172 27.832 1.11278 27.8556 0.85628 27.8351C0.85628 26.9105 0.85628 25.9859 0.85628 25.0613ZM24.256 25.1324C24.9782 25.0617 25.7131 25.0379 26.4609 25.0613C26.4609 25.9859 26.4609 26.9105 26.4609 27.8351C26.2044 27.8556 25.9555 27.832 25.7141 27.764C25.5214 26.714 25.0354 25.8369 24.256 25.1324Z" fill="#424242"/>
<path opacity="0.825" fill-rule="evenodd" clip-rule="evenodd" d="M28.5943 15.0329C28.9433 14.948 29.1566 15.0784 29.2345 15.4241C29.0933 15.8329 28.8444 15.9158 28.4877 15.6731C28.3495 15.4341 28.3851 15.2208 28.5943 15.0329Z" fill="#424242"/>
<path opacity="0.795" fill-rule="evenodd" clip-rule="evenodd" d="M28.5942 19.158C29.2304 19.1386 29.3726 19.3876 29.021 19.9048C28.6543 20.0241 28.441 19.8937 28.3809 19.5137C28.3991 19.3578 28.4703 19.2392 28.5942 19.158Z" fill="#424242"/>
</svg>
