<svg width="25" height="20" viewBox="0 0 25 20" fill="none" xmlns="http://www.w3.org/2000/svg">
<path d="M1 4.85714C1 3.65901 1 3.05995 1.19453 2.58738C1.45391 1.95732 1.95141 1.45672 2.57758 1.19574C3.04723 1 3.6426 1 4.83333 1H20.1667C21.3574 1 21.9527 1 22.4225 1.19574C23.0486 1.45672 23.5461 1.95732 23.8055 2.58738C24 3.05995 24 3.65901 24 4.85714V15.1429C24 16.341 24 16.94 23.8055 17.4127C23.5461 18.0427 23.0486 18.5433 22.4225 18.8043C21.9527 19 21.3574 19 20.1667 19H4.83333C3.6426 19 3.04723 19 2.57758 18.8043C1.95141 18.5433 1.45391 18.0427 1.19453 17.4127C1 16.94 1 16.341 1 15.1429V4.85714Z" stroke="#424242" stroke-width="2" stroke-linejoin="round"/>
<path d="M2 2L10.3537 9.37582C11.2962 10.2081 12.7038 10.2081 13.6463 9.37582L22 2" stroke="#424242" stroke-width="2" stroke-linecap="round" stroke-linejoin="round"/>
</svg>
