<svg width="20" height="21" viewBox="0 0 20 21" fill="none" xmlns="http://www.w3.org/2000/svg">
<path d="M17.3934 20.5H17.1294C14.1549 20.1776 11.2971 19.1674 8.78398 17.5497C6.44931 16.0686 4.46707 14.0978 2.97548 11.775C1.3479 9.265 0.333548 6.40992 0.0138276 3.43882C-0.0227224 3.08445 0.0133686 2.72636 0.119931 2.3863C0.226481 2.04624 0.401276 1.73129 0.633708 1.46055C0.85978 1.18619 1.13882 0.959806 1.45431 0.794808C1.7698 0.629823 2.11531 0.529571 2.47039 0.5H5.455C6.10142 0.500652 6.72629 0.731527 7.21679 1.15093C7.70729 1.57034 8.03106 2.15064 8.12967 2.78702C8.23872 3.6045 8.44282 4.40654 8.73807 5.17696C8.9176 5.6611 8.95468 6.18626 8.84494 6.69067C8.73508 7.19508 8.483 7.65776 8.11819 8.0243L7.41795 8.72183C8.52042 10.4556 9.99929 11.921 11.7456 13.01L12.4459 12.3239C12.8138 11.9605 13.2783 11.7094 13.7847 11.5999C14.291 11.4906 14.8182 11.5276 15.3042 11.7064C16.0785 11.9978 16.8833 12.2011 17.7034 12.3125C18.3531 12.4098 18.9449 12.7399 19.3676 13.241C19.7903 13.7422 20.015 14.3797 19.9992 15.034V17.7784C19.9992 18.4922 19.7153 19.177 19.2098 19.6827C18.7043 20.1885 18.0181 20.4742 17.3016 20.4771L17.3934 20.5ZM5.455 2.20383H2.71145C2.57675 2.21271 2.44524 2.24869 2.32489 2.30962C2.20453 2.37054 2.09783 2.45515 2.01122 2.55832C1.92694 2.65496 1.86314 2.76759 1.82368 2.88944C1.78423 3.01128 1.76993 3.13981 1.78163 3.2673C2.05999 5.9623 2.96815 8.55488 4.43334 10.8373C5.78404 12.9491 7.58247 14.7406 9.70233 16.086C11.9951 17.5609 14.6005 18.4849 17.3131 18.7847C17.4542 18.7926 17.5954 18.7714 17.7277 18.7222C17.8601 18.6729 17.9808 18.5969 18.0822 18.4989C18.2649 18.3122 18.3679 18.0621 18.3692 17.8013V15.0683C18.3743 14.8277 18.2908 14.5935 18.1342 14.4101C17.9776 14.2268 17.7589 14.107 17.5197 14.0735C16.5714 13.9464 15.6399 13.7163 14.7417 13.3874C14.5648 13.3215 14.3728 13.3069 14.1878 13.3454C14.0029 13.3838 13.8328 13.4737 13.6971 13.6046L12.5492 14.7481C12.4148 14.8787 12.2415 14.9627 12.0555 14.9874C11.8693 15.0121 11.6802 14.9763 11.516 14.8854C9.0666 13.5065 7.0391 11.4908 5.65015 9.05345C5.55507 8.89107 5.51701 8.70171 5.54195 8.51532C5.5669 8.32904 5.65343 8.15623 5.7879 8.0243L6.93582 6.88079C7.06747 6.74817 7.15803 6.58062 7.1967 6.39814C7.23537 6.21566 7.22053 6.02594 7.15393 5.85163C6.8224 4.95738 6.59141 4.02929 6.46517 3.08434C6.43669 2.83879 6.31747 2.61259 6.13072 2.44982C5.94398 2.28704 5.7031 2.19936 5.455 2.20383Z" fill="#424242"/>
</svg>
