<svg width="35" height="34" viewBox="0 0 35 34" fill="none" xmlns="http://www.w3.org/2000/svg">
<path opacity="0.971" fill-rule="evenodd" clip-rule="evenodd" d="M9.67199 2.00932C17.8372 1.98442 25.9972 2.00941 34.1519 2.0843C34.2019 10.0318 34.2019 17.9793 34.1519 25.9269C32.8705 26.0012 31.5835 26.0262 30.2906 26.0018C30.278 27.4266 30.2906 28.8512 30.3281 30.2755C30.846 30.6658 31.3833 31.0281 31.9401 31.3627C32.1035 31.544 32.1285 31.7439 32.015 31.9625C30.2656 32.0125 28.5161 32.0125 26.7667 31.9625C26.6532 31.7439 26.6782 31.544 26.8416 31.3627C27.3984 31.0281 27.9357 30.6658 28.4536 30.2755C28.4911 28.8512 28.5037 27.4266 28.4911 26.0018C27.0915 26.0018 25.692 26.0018 24.2924 26.0018C24.305 27.0269 24.2924 28.0515 24.2549 29.0759C24.13 29.3008 23.955 29.4757 23.7301 29.6007C23.7051 29.9756 23.6801 30.3505 23.6551 30.7254C23.199 30.811 22.7366 30.8235 22.2681 30.7629C22.1953 30.3826 22.1702 29.9953 22.1931 29.6007C19.394 29.6007 16.5948 29.6007 13.7957 29.6007C13.8186 29.9953 13.7935 30.3826 13.7207 30.7629C13.2522 30.8235 12.7898 30.811 12.3337 30.7254C12.3087 30.3505 12.2837 29.9756 12.2587 29.6007C12.0338 29.4757 11.8588 29.3008 11.7338 29.0759C11.6964 28.0515 11.6838 27.0269 11.6964 26.0018C11.121 25.9894 10.5461 26.0018 9.9719 26.0393C6.82288 27.8138 3.67386 29.5882 0.524838 31.3627C0.354679 31.4195 0.192235 31.407 0.0374902 31.3252C-0.0124967 23.3777 -0.0124967 15.4301 0.0374902 7.48262C3.25977 5.66563 6.47124 3.8412 9.67199 2.00932ZM10.1968 2.60913C17.9944 2.60913 25.792 2.60913 33.5895 2.60913C33.5895 10.2067 33.5895 17.8044 33.5895 25.402C32.4899 25.402 31.3903 25.402 30.2906 25.402C30.2906 23.8026 30.2906 22.203 30.2906 20.6035C30.5905 20.6035 30.8904 20.6035 31.1903 20.6035C31.1903 21.3033 31.1903 22.0031 31.1903 22.7029C31.3903 22.7029 31.5901 22.7029 31.7901 22.7029C31.7901 22.0031 31.7901 21.3033 31.7901 20.6035C32.0662 20.6159 32.341 20.6035 32.6148 20.566C32.6743 20.4847 32.7243 20.3972 32.7648 20.3036C32.0654 18.6929 31.3157 17.1059 30.5155 15.5426C29.7474 15.4812 28.9852 15.4937 28.2287 15.5801C27.6142 17.0486 27.0144 18.5232 26.4293 20.0037C26.3716 20.1986 26.3841 20.386 26.4668 20.566C27.1411 20.6035 27.8159 20.616 28.4911 20.6035C28.4911 22.203 28.4911 23.8026 28.4911 25.402C27.0906 25.427 25.6911 25.402 24.2924 25.3271C24.1425 24.9272 23.8675 24.6523 23.4677 24.5023C23.4053 23.879 23.3678 23.2542 23.3552 22.6279C23.2428 22.4155 23.0803 22.253 22.8679 22.1406C19.6189 22.0905 16.3699 22.0905 13.1209 22.1406C12.9085 22.253 12.746 22.4155 12.6336 22.6279C12.621 23.2542 12.5835 23.879 12.5211 24.5023C12.1213 24.6523 11.8463 24.9272 11.6964 25.3271C11.199 25.4018 10.6992 25.4268 10.1968 25.402C10.1968 17.8044 10.1968 10.2067 10.1968 2.60913ZM9.44706 2.90904C9.547 6.64505 9.59701 10.4064 9.59701 14.193C9.58449 17.9544 9.57205 21.7157 9.55952 25.477C8.91548 25.8804 8.25321 26.2553 7.57264 26.6017C7.51019 22.8281 7.4727 19.0543 7.46018 15.2802C7.18254 15.1743 6.92012 15.2118 6.67292 15.3927C5.35469 16.1454 4.0426 16.9077 2.73665 17.6794C2.71166 21.5782 2.68666 25.477 2.66167 29.3758C1.99329 29.7412 1.331 30.116 0.674792 30.5004C0.587316 22.9779 0.574825 15.4553 0.637303 7.93248C3.59688 6.28441 6.53347 4.60993 9.44706 2.90904ZM16.4949 4.40857C19.8938 4.40857 23.2928 4.40857 26.6917 4.40857C26.6917 7.80749 26.6917 11.2065 26.6917 14.6054C23.2928 14.6054 19.8938 14.6054 16.4949 14.6054C16.4949 11.2065 16.4949 7.80749 16.4949 4.40857ZM17.6945 5.6082C18.6942 5.6082 19.6939 5.6082 20.6936 5.6082C20.6936 6.60786 20.6936 7.6076 20.6936 8.60727C19.6939 8.60727 18.6942 8.60727 17.6945 8.60727C17.6945 7.6076 17.6945 6.60786 17.6945 5.6082ZM22.493 5.6082C23.4927 5.6082 24.4924 5.6082 25.4921 5.6082C25.4921 6.60786 25.4921 7.6076 25.4921 8.60727C24.4924 8.60727 23.4927 8.60727 22.493 8.60727C22.493 7.6076 22.493 6.60786 22.493 5.6082ZM17.6945 10.4067C18.6942 10.4067 19.6939 10.4067 20.6936 10.4067C20.6936 11.4064 20.6936 12.4061 20.6936 13.4058C19.6939 13.4058 18.6942 13.4058 17.6945 13.4058C17.6945 12.4061 17.6945 11.4064 17.6945 10.4067ZM22.493 10.4067C23.4927 10.4067 24.4924 10.4067 25.4921 10.4067C25.4921 11.4064 25.4921 12.4061 25.4921 13.4058C24.4924 13.4058 23.4927 13.4058 22.493 13.4058C22.493 12.4061 22.493 11.4064 22.493 10.4067ZM6.7479 16.1049C6.84784 17.8912 6.89785 19.7031 6.89785 21.5407C6.88533 23.3527 6.87289 25.1646 6.86037 26.9765C5.68571 27.6513 4.5111 28.3261 3.33646 29.0009C3.28648 25.3771 3.28648 21.7531 3.33646 18.1293C4.49691 17.4809 5.63405 16.8061 6.7479 16.1049ZM28.7161 16.1049C29.1687 16.0803 29.6186 16.1052 30.0656 16.1799C30.6763 17.4386 31.2761 18.7007 31.8651 19.9662C30.3149 20.0287 28.7655 20.0162 27.2165 19.9287C27.7381 18.661 28.238 17.3864 28.7161 16.1049ZM29.0909 20.6035C29.2909 20.6035 29.4908 20.6035 29.6908 20.6035C29.6782 23.9776 29.6908 27.3515 29.7282 30.7254C30.0341 30.9471 30.3466 31.1595 30.6655 31.3627C29.8157 31.4127 28.966 31.4127 28.1162 31.3627C28.4351 31.1595 28.7476 30.9471 29.0535 30.7254C29.0909 27.3515 29.1035 23.9776 29.0909 20.6035ZM13.4958 22.7029C14.8954 22.7029 16.2949 22.7029 17.6945 22.7029C17.6945 23.4026 17.6945 24.1025 17.6945 24.8022C17.8945 24.8022 18.0943 24.8022 18.2943 24.8022C18.2943 24.1025 18.2943 23.4026 18.2943 22.7029C19.7508 22.6673 21.2003 22.7048 22.643 22.8153C22.6899 22.8716 22.7274 22.9341 22.7554 23.0028C22.8177 23.5045 22.8052 24.0043 22.7179 24.5023C22.053 24.7823 21.778 25.2821 21.8932 26.0018C20.6683 25.9893 19.4437 26.0018 18.2193 26.0393C18.0694 26.1893 17.9194 26.1893 17.7695 26.0393C16.5451 26.0018 15.3205 25.9893 14.0956 26.0018C14.2108 25.2821 13.9358 24.7823 13.2709 24.5023C13.1836 24.0043 13.1711 23.5045 13.2334 23.0028C13.2851 22.8641 13.3725 22.7641 13.4958 22.7029ZM12.6711 25.1771C12.9848 25.1174 13.2221 25.2174 13.3833 25.477C13.4661 26.2396 13.5286 27.0019 13.5708 27.7638C16.5198 27.8138 19.469 27.8138 22.418 27.7638C22.4602 27.0019 22.5227 26.2396 22.6055 25.477C22.8504 25.1446 23.1503 25.0946 23.5052 25.3271C23.5698 25.446 23.6198 25.571 23.6551 25.7019C23.7051 26.7016 23.7051 27.7013 23.6551 28.701C23.6176 28.8384 23.5302 28.9259 23.3927 28.9634C19.7938 29.0134 16.195 29.0134 12.5961 28.9634C12.4586 28.9259 12.3712 28.8384 12.3337 28.701C12.2837 27.7013 12.2837 26.7016 12.3337 25.7019C12.3734 25.4706 12.4859 25.2957 12.6711 25.1771ZM14.0956 26.6017C15.1955 26.5891 16.2952 26.6017 17.3946 26.6391C17.6211 26.7545 17.721 26.942 17.6945 27.2015C16.4949 27.2015 15.2952 27.2015 14.0956 27.2015C14.0956 27.0015 14.0956 26.8016 14.0956 26.6017ZM18.5942 26.6017C19.6939 26.6017 20.7935 26.6017 21.8932 26.6017C21.8932 26.8016 21.8932 27.0015 21.8932 27.2015C20.6936 27.2015 19.4939 27.2015 18.2943 27.2015C18.2777 26.9349 18.3776 26.7349 18.5942 26.6017ZM12.896 29.6007C12.9959 29.6007 13.0959 29.6007 13.1959 29.6007C13.1959 29.8007 13.1959 30.0006 13.1959 30.2005C13.0959 30.2005 12.9959 30.2005 12.896 30.2005C12.896 30.0006 12.896 29.8007 12.896 29.6007ZM22.7929 29.6007C22.8928 29.6007 22.9929 29.6007 23.0928 29.6007C23.0928 29.8007 23.0928 30.0006 23.0928 30.2005C22.9929 30.2005 22.8928 30.2005 22.7929 30.2005C22.7929 30.0006 22.7929 29.8007 22.7929 29.6007Z" fill="#424242"/>
<path opacity="0.998" fill-rule="evenodd" clip-rule="evenodd" d="M15.9708 3.80882C19.7375 3.78403 23.4988 3.80902 27.2548 3.88379C27.317 7.6504 27.3046 11.4118 27.2173 15.1678C23.4507 15.23 19.6893 15.2176 15.9333 15.1303C15.8712 11.3512 15.8837 7.57737 15.9708 3.80882ZM16.4956 4.40863C16.4956 7.80755 16.4956 11.2065 16.4956 14.6055C19.8945 14.6055 23.2935 14.6055 26.6925 14.6055C26.6925 11.2065 26.6925 7.80755 26.6925 4.40863C23.2935 4.40863 19.8945 4.40863 16.4956 4.40863ZM17.6953 5.60826C17.6953 6.60792 17.6953 7.60766 17.6953 8.60732C18.6949 8.60732 19.6947 8.60732 20.6943 8.60732C20.6943 7.60766 20.6943 6.60792 20.6943 5.60826C19.6947 5.60826 18.6949 5.60826 17.6953 5.60826ZM22.4938 5.60826C22.4938 6.60792 22.4938 7.60766 22.4938 8.60732C23.4934 8.60732 24.4932 8.60732 25.4928 8.60732C25.4928 7.60766 25.4928 6.60792 25.4928 5.60826C24.4932 5.60826 23.4934 5.60826 22.4938 5.60826ZM17.6953 10.4068C17.6953 11.4064 17.6953 12.4062 17.6953 13.4058C18.6949 13.4058 19.6947 13.4058 20.6943 13.4058C20.6943 12.4062 20.6943 11.4064 20.6943 10.4068C19.6947 10.4068 18.6949 10.4068 17.6953 10.4068ZM22.4938 10.4068C22.4938 11.4064 22.4938 12.4062 22.4938 13.4058C23.4934 13.4058 24.4932 13.4058 25.4928 13.4058C25.4928 12.4062 25.4928 11.4064 25.4928 10.4068C24.4932 10.4068 23.4934 10.4068 22.4938 10.4068Z" fill="#424242"/>
<path opacity="0.993" fill-rule="evenodd" clip-rule="evenodd" d="M17.1695 5.00881C18.5373 4.98439 19.8994 5.00938 21.2557 5.08378C21.3176 6.45136 21.3051 7.81346 21.2182 9.17001C19.8507 9.23187 18.4886 9.21942 17.132 9.13252C17.0706 7.75243 17.0831 6.37788 17.1695 5.00881ZM17.6943 5.60862C17.6943 6.60828 17.6943 7.60802 17.6943 8.60769C18.694 8.60769 19.6937 8.60769 20.6934 8.60769C20.6934 7.60802 20.6934 6.60828 20.6934 5.60862C19.6937 5.60862 18.694 5.60862 17.6943 5.60862Z" fill="#424242"/>
<path opacity="0.993" fill-rule="evenodd" clip-rule="evenodd" d="M21.9683 5.00881C23.3361 4.98439 24.6982 5.00938 26.0546 5.08378C26.1164 6.45136 26.104 7.81346 26.0171 9.17001C24.6495 9.23187 23.2874 9.21942 21.9308 9.13252C21.8694 7.75243 21.882 6.37788 21.9683 5.00881ZM22.4932 5.60862C22.4932 6.60828 22.4932 7.60802 22.4932 8.60769C23.4928 8.60769 24.4926 8.60769 25.4922 8.60769C25.4922 7.60802 25.4922 6.60828 25.4922 5.60862C24.4926 5.60862 23.4928 5.60862 22.4932 5.60862Z" fill="#424242"/>
<path opacity="0.993" fill-rule="evenodd" clip-rule="evenodd" d="M17.1695 9.80666C18.5373 9.78222 19.8994 9.80726 21.2557 9.88164C21.3176 11.2492 21.3051 12.6113 21.2182 13.9679C19.8507 14.0297 18.4886 14.0173 17.132 13.9304C17.0706 12.5503 17.0831 11.1757 17.1695 9.80666ZM17.6943 10.4065C17.6943 11.4061 17.6943 12.4059 17.6943 13.4055C18.694 13.4055 19.6937 13.4055 20.6934 13.4055C20.6934 12.4059 20.6934 11.4061 20.6934 10.4065C19.6937 10.4065 18.694 10.4065 17.6943 10.4065Z" fill="#424242"/>
<path opacity="0.993" fill-rule="evenodd" clip-rule="evenodd" d="M21.9683 9.80666C23.3361 9.78222 24.6982 9.80726 26.0546 9.88164C26.1164 11.2492 26.104 12.6113 26.0171 13.9679C24.6495 14.0297 23.2874 14.0173 21.9308 13.9304C21.8694 12.5503 21.882 11.1757 21.9683 9.80666ZM22.4932 10.4065C22.4932 11.4061 22.4932 12.4059 22.4932 13.4055C23.4928 13.4055 24.4926 13.4055 25.4922 13.4055C25.4922 12.4059 25.4922 11.4061 25.4922 10.4065C24.4926 10.4065 23.4928 10.4065 22.4932 10.4065Z" fill="#424242"/>
<path opacity="0.892" fill-rule="evenodd" clip-rule="evenodd" d="M4.19846 22.1032C5.05018 22.0439 5.3001 22.4063 4.94822 23.1903C4.15828 23.49 3.82088 23.2276 3.93604 22.4031C3.98775 22.2644 4.07523 22.1643 4.19846 22.1032Z" fill="#424242"/>
</svg>
