<svg width="16" height="10" viewBox="0 0 16 10" fill="none" xmlns="http://www.w3.org/2000/svg">
<path opacity="0.984" fill-rule="evenodd" clip-rule="evenodd" d="M1.41194e-08 8.81597C1.59827e-08 8.65972 1.78459e-08 8.50347 1.97092e-08 8.34722C0.0610594 8.20457 0.139184 8.06916 0.234375 7.94097C2.60417 5.57119 4.97397 3.20138 7.34375 0.831597C7.71738 0.518098 8.11322 0.486848 8.53125 0.737847C10.974 3.18057 13.4167 5.62325 15.8594 8.06597C15.9077 8.1626 15.9546 8.25635 16 8.34722C16 8.50347 16 8.65972 16 8.81597C15.7745 9.22431 15.4724 9.57328 15.0938 9.86285C14.7447 10.0556 14.4009 10.0452 14.0625 9.8316C12.0464 7.81035 10.0256 5.79472 8 3.78472C5.96313 5.81641 3.92144 7.84244 1.875 9.86285C1.53693 10.0494 1.2036 10.039 0.875 9.8316C0.630209 9.58681 0.385416 9.342 0.140625 9.09722C0.0923144 9.0006 0.0454394 8.90685 1.41194e-08 8.81597Z" fill="#8E8E8E"/>
</svg>
