<svg width="40" height="40" viewBox="0 0 40 40" fill="none" xmlns="http://www.w3.org/2000/svg">
<path opacity="0.986" fill-rule="evenodd" clip-rule="evenodd" d="M9.25488 4.15571e-05C9.62414 4.1541e-05 9.99332 4.15248e-05 10.3626 4.15087e-05C10.5421 0.115352 10.7267 0.23254 10.9164 0.351604C13.6967 3.17496 16.5055 5.97441 19.3429 8.75003C19.8057 9.61066 19.687 10.3789 18.9869 11.0547C18.3539 11.4193 17.7209 11.4193 17.0879 11.0547C15.2022 9.19277 13.3164 7.33074 11.4307 5.46878C11.4044 16.6406 11.378 27.8125 11.3516 38.9844C11.1654 39.4676 10.8357 39.8061 10.3626 40C9.99333 40 9.62414 40 9.25488 40C8.78173 39.8061 8.45203 39.4676 8.26586 38.9844C8.23951 27.8125 8.21309 16.6406 8.18674 5.46878C6.30103 7.33074 4.41524 9.19277 2.52953 11.0547C1.54534 11.5635 0.740985 11.3682 0.116318 10.4688C-0.0803782 9.86777 -0.027604 9.2948 0.274562 8.75003C3.11195 5.97441 5.92077 3.17496 8.70103 0.351604C8.89076 0.23254 9.07535 0.115352 9.25488 4.15571e-05Z" fill="#1A2E47"/>
<path opacity="0.986" fill-rule="evenodd" clip-rule="evenodd" d="M30.7451 40C30.3759 40 30.0067 40 29.6374 40C29.4579 39.8846 29.2733 39.7675 29.0836 39.6484C26.3033 36.825 23.4945 34.0256 20.6571 31.25C20.1943 30.3893 20.313 29.6211 21.0131 28.9453C21.6461 28.5807 22.2791 28.5807 22.9121 28.9453C24.7978 30.8072 26.6836 32.6693 28.5693 34.5312C28.5956 23.3594 28.622 12.1875 28.6484 1.01562C28.8346 0.53245 29.1643 0.193909 29.6374 1.22016e-07C30.0067 1.17668e-07 30.3759 1.13321e-07 30.7451 1.08973e-07C31.2183 0.193908 31.548 0.53245 31.7341 1.01562C31.7605 12.1875 31.7869 23.3594 31.8133 34.5312C33.699 32.6693 35.5848 30.8072 37.4705 28.9453C38.4547 28.4365 39.259 28.6318 39.8837 29.5312C40.0804 30.1322 40.0276 30.7052 39.7254 31.25C36.8881 34.0256 34.0792 36.825 31.299 39.6484C31.1092 39.7675 30.9246 39.8846 30.7451 40Z" fill="#1A2E47"/>
</svg>
