<svg width="22" height="13" viewBox="0 0 22 13" fill="none" xmlns="http://www.w3.org/2000/svg">
<path opacity="0.984" fill-rule="evenodd" clip-rule="evenodd" d="M22 1.66234C22 1.87719 22 2.09203 22 2.30687C21.916 2.50303 21.8086 2.68921 21.6777 2.86547C18.4193 6.12392 15.1608 9.38241 11.9023 12.6409C11.3886 13.0719 10.8443 13.1149 10.2695 12.7698C6.91079 9.41103 3.5521 6.05233 0.193359 2.69359C0.12693 2.56073 0.0624771 2.43183 2.71001e-08 2.30687C2.45382e-08 2.09203 2.19762e-08 1.87719 1.94142e-08 1.66234C0.310106 1.10087 0.725485 0.621038 1.24609 0.222889C1.7261 -0.0421422 2.19875 -0.0278336 2.66406 0.265858C5.43615 3.04508 8.21477 5.81656 11 8.58031C13.8007 5.78674 16.608 3.00095 19.4219 0.222889C19.8867 -0.0336775 20.3451 -0.019326 20.7969 0.265858C21.1335 0.602432 21.4701 0.939049 21.8066 1.27562C21.8731 1.40848 21.9375 1.53739 22 1.66234Z" fill="#424242"/>
</svg>
