<svg width="50" height="50" viewBox="0 0 50 50" fill="none" xmlns="http://www.w3.org/2000/svg">
<rect width="50" height="50" rx="3" fill="white"/>
<path d="M4.19873 39.204C4.32736 39.334 4.50083 39.4069 4.68157 39.4069C4.86232 39.4069 5.03578 39.334 5.16442 39.204L32.7157 10.9944C33.9999 9.70709 35.7284 8.99046 37.5257 9.00018C39.3231 9.0099 41.044 9.74519 42.315 11.0464C43.5859 12.3475 44.3041 14.1095 44.3136 15.9496C44.323 17.7897 43.6231 19.5594 42.3657 20.8742L28.8277 34.7391C28.753 34.8013 28.6919 34.8787 28.6483 34.9666C28.6047 35.0544 28.5796 35.1507 28.5746 35.2491C28.5696 35.3475 28.5849 35.4458 28.6194 35.5378C28.6539 35.6298 28.7069 35.7133 28.775 35.783C28.8431 35.8527 28.9246 35.9069 29.0145 35.9423C29.1043 35.9776 29.2004 35.9932 29.2965 35.9882C29.3926 35.9831 29.4866 35.9574 29.5724 35.9127C29.6582 35.8681 29.7339 35.8055 29.7946 35.729L43.3314 21.864C44.8393 20.2857 45.6784 18.1623 45.6666 15.9545C45.6548 13.7467 44.7931 11.6327 43.2684 10.0714C41.7437 8.5101 39.679 7.62739 37.5226 7.61488C35.3661 7.60237 33.2919 8.46106 31.75 10.0046L4.19873 38.2142C4.07141 38.3459 4 38.5238 4 38.7091C4 38.8944 4.07141 39.0723 4.19873 39.204Z" fill="#1A2E47"/>
<path d="M29.2066 28.6558C29.078 28.5258 28.9045 28.4529 28.7238 28.4529C28.543 28.4529 28.3695 28.5258 28.2409 28.6558L17.4729 39.6802C17.3669 39.8154 17.3135 39.986 17.3228 40.1591C17.3321 40.3322 17.4036 40.4957 17.5234 40.6183C17.6432 40.7408 17.803 40.8137 17.9721 40.8231C18.1412 40.8324 18.3077 40.7775 18.4397 40.6689L29.2077 29.6444C29.3346 29.5126 29.4056 29.3349 29.4053 29.1499C29.4051 28.9648 29.3337 28.7873 29.2066 28.6558Z" fill="#1A2E47"/>
<path d="M19.4185 30.5454C19.2898 30.4154 19.1164 30.3425 18.9356 30.3425C18.7549 30.3425 18.5814 30.4154 18.4528 30.5454L8.54506 40.6879C8.47035 40.75 8.40922 40.8275 8.36561 40.9153C8.32201 41.0031 8.2969 41.0994 8.29193 41.1978C8.28696 41.2962 8.30223 41.3946 8.33675 41.4865C8.37127 41.5785 8.42428 41.662 8.49233 41.7317C8.56038 41.8014 8.64197 41.8556 8.7318 41.891C8.82164 41.9263 8.91773 41.942 9.01384 41.9369C9.10995 41.9318 9.20395 41.9061 9.28975 41.8614C9.37554 41.8168 9.45123 41.7542 9.5119 41.6777L19.4185 31.5341C19.5455 31.4024 19.6166 31.2248 19.6166 31.0398C19.6166 30.8547 19.5455 30.6771 19.4185 30.5454Z" fill="#1A2E47"/>
<path d="M37.1703 21.5605C38.356 21.5605 39.505 21.1397 40.4216 20.3696C41.3382 19.5996 41.9657 18.528 42.1971 17.3374C42.4285 16.1468 42.2496 14.9109 41.6907 13.8403C41.1319 12.7696 40.2278 11.9305 39.1324 11.4658C38.037 11.0011 36.8181 10.9397 35.6835 11.2919C34.5488 11.6441 33.5685 12.3883 32.9096 13.3975C32.2507 14.4067 31.954 15.6186 32.07 16.8267C32.186 18.0348 32.7076 19.1644 33.5458 20.0229C34.0205 20.5121 34.5853 20.8999 35.2075 21.1638C35.8297 21.4277 36.4968 21.5626 37.1703 21.5605ZM34.5127 13.5924C35.128 12.9635 35.9373 12.5725 36.8026 12.4859C37.668 12.3994 38.5359 12.6227 39.2584 13.1178C39.981 13.6129 40.5136 14.3491 40.7654 15.2011C41.0173 16.0531 40.9728 16.9682 40.6396 17.7904C40.3064 18.6126 39.7051 19.2911 38.938 19.7103C38.171 20.1295 37.2858 20.2635 36.4331 20.0894C35.5804 19.9153 34.8131 19.444 34.2618 18.7557C33.7104 18.0674 33.4093 17.2046 33.4095 16.3145C33.4082 15.8086 33.5051 15.3075 33.6945 14.8402C33.8838 14.3729 34.1619 13.9488 34.5127 13.5924Z" fill="#1A2E47"/>
<path d="M37.4814 18.5875C37.9856 18.5875 38.3943 18.169 38.3943 17.6527C38.3943 17.1365 37.9856 16.718 37.4814 16.718C36.9771 16.718 36.5684 17.1365 36.5684 17.6527C36.5684 18.169 36.9771 18.5875 37.4814 18.5875Z" fill="#1A2E47"/>
<path d="M38.9176 16.0189C39.1283 16.0189 39.2991 15.844 39.2991 15.6283C39.2991 15.4126 39.1283 15.2378 38.9176 15.2378C38.7069 15.2378 38.5361 15.4126 38.5361 15.6283C38.5361 15.844 38.7069 16.0189 38.9176 16.0189Z" fill="#1A2E47"/>
<path d="M35.2762 17.2646C35.3296 17.2099 35.3659 17.1404 35.3806 17.0646C35.3953 16.9888 35.3878 16.9103 35.3589 16.839C35.33 16.7676 35.2811 16.7066 35.2184 16.6637C35.1557 16.6208 35.0819 16.5979 35.0065 16.5979C34.931 16.5979 34.8573 16.6208 34.7945 16.6637C34.7318 16.7066 34.6829 16.7676 34.654 16.839C34.6252 16.9103 34.6176 16.9888 34.6323 17.0646C34.647 17.1404 34.6834 17.2099 34.7367 17.2646C34.7721 17.3008 34.8142 17.3296 34.8605 17.3493C34.9067 17.3689 34.9564 17.379 35.0065 17.379C35.0566 17.379 35.1062 17.3689 35.1525 17.3493C35.1988 17.3296 35.2408 17.3008 35.2762 17.2646Z" fill="#1A2E47"/>
<path d="M36.2945 14.9588C36.5052 14.9588 36.676 14.784 36.676 14.5683C36.676 14.3526 36.5052 14.1777 36.2945 14.1777C36.0839 14.1777 35.9131 14.3526 35.9131 14.5683C35.9131 14.784 36.0839 14.9588 36.2945 14.9588Z" fill="#1A2E47"/>
<path d="M22.1594 26.4839C22.2492 26.3918 22.3103 26.2746 22.335 26.147C22.3597 26.0194 22.347 25.8872 22.2983 25.767C22.2496 25.6468 22.1672 25.5441 22.0616 25.4719C21.9559 25.3996 21.8317 25.3611 21.7047 25.3611C21.5776 25.3611 21.4534 25.3996 21.3477 25.4719C21.2421 25.5441 21.1597 25.6468 21.111 25.767C21.0624 25.8872 21.0496 26.0194 21.0743 26.147C21.099 26.2746 21.1601 26.3918 21.2499 26.4839C21.3707 26.6069 21.5342 26.676 21.7047 26.676C21.8751 26.676 22.0386 26.6069 22.1594 26.4839Z" fill="#1A2E47"/>
<path d="M6.8839 33.0047C7.09458 33.0047 7.26537 32.8299 7.26537 32.6142C7.26537 32.3985 7.09458 32.2236 6.8839 32.2236C6.67323 32.2236 6.50244 32.3985 6.50244 32.6142C6.50244 32.8299 6.67323 33.0047 6.8839 33.0047Z" fill="#1A2E47"/>
<path d="M13.316 40.1424C13.5267 40.1424 13.6975 39.9676 13.6975 39.7519C13.6975 39.5362 13.5267 39.3613 13.316 39.3613C13.1054 39.3613 12.9346 39.5362 12.9346 39.7519C12.9346 39.9676 13.1054 40.1424 13.316 40.1424Z" fill="#1A2E47"/>
<path d="M22.7491 30.8829C22.9598 30.8829 23.1306 30.708 23.1306 30.4923C23.1306 30.2767 22.9598 30.1018 22.7491 30.1018C22.5385 30.1018 22.3677 30.2767 22.3677 30.4923C22.3677 30.708 22.5385 30.8829 22.7491 30.8829Z" fill="#1A2E47"/>
<path d="M25.2706 37.0345C25.4813 37.0345 25.6521 36.8597 25.6521 36.644C25.6521 36.4283 25.4813 36.2534 25.2706 36.2534C25.0599 36.2534 24.8892 36.4283 24.8892 36.644C24.8892 36.8597 25.0599 37.0345 25.2706 37.0345Z" fill="#1A2E47"/>
<path d="M32.3924 26.7639C32.3076 26.8507 32.2499 26.9612 32.2265 27.0816C32.2031 27.2019 32.2151 27.3267 32.261 27.4401C32.3068 27.5534 32.3845 27.6504 32.4841 27.7185C32.5838 27.7867 32.701 27.8231 32.8208 27.8231C32.9407 27.8231 33.0579 27.7867 33.1575 27.7185C33.2572 27.6504 33.3349 27.5534 33.3807 27.4401C33.4266 27.3267 33.4386 27.2019 33.4152 27.0816C33.3918 26.9612 33.334 26.8507 33.2493 26.7639C33.1356 26.6476 32.9815 26.5823 32.8208 26.5823C32.6601 26.5823 32.506 26.6476 32.3924 26.7639Z" fill="#1A2E47"/>
<path d="M30.9622 19.61C31.0469 19.5232 31.1047 19.4127 31.1281 19.2923C31.1514 19.172 31.1395 19.0472 31.0936 18.9338C31.0477 18.8204 30.9701 18.7235 30.8704 18.6554C30.7708 18.5872 30.6536 18.5508 30.5337 18.5508C30.4139 18.5508 30.2967 18.5872 30.197 18.6554C30.0974 18.7235 30.0197 18.8204 29.9738 18.9338C29.928 19.0472 29.916 19.172 29.9394 19.2923C29.9628 19.4127 30.0205 19.5232 30.1053 19.61C30.1615 19.6677 30.2283 19.7135 30.3018 19.7448C30.3753 19.776 30.4541 19.7921 30.5337 19.7921C30.6133 19.7921 30.6921 19.776 30.7657 19.7448C30.8392 19.7135 30.906 19.6677 30.9622 19.61Z" fill="#1A2E47"/>
<path d="M40.843 26.5048C40.7585 26.5914 40.7009 26.7018 40.6776 26.8219C40.6543 26.942 40.6663 27.0664 40.7121 27.1796C40.7579 27.2927 40.8354 27.3894 40.9349 27.4574C41.0343 27.5254 41.1513 27.5617 41.2709 27.5617C41.3905 27.5617 41.5074 27.5254 41.6068 27.4574C41.7063 27.3894 41.7838 27.2927 41.8296 27.1796C41.8754 27.0664 41.8874 26.942 41.8641 26.8219C41.8408 26.7018 41.7833 26.5914 41.6987 26.5048C41.6425 26.4472 41.5758 26.4016 41.5024 26.3704C41.429 26.3393 41.3503 26.3232 41.2709 26.3232C41.1914 26.3232 41.1127 26.3393 41.0393 26.3704C40.9659 26.4016 40.8992 26.4472 40.843 26.5048Z" fill="#1A2E47"/>
<path d="M14.5349 26.5355C14.6197 26.4487 14.6774 26.3382 14.7008 26.2178C14.7242 26.0975 14.7122 25.9727 14.6664 25.8594C14.6205 25.746 14.5428 25.6491 14.4432 25.5809C14.3435 25.5127 14.2263 25.4763 14.1065 25.4763C13.9866 25.4763 13.8694 25.5127 13.7698 25.5809C13.6701 25.6491 13.5925 25.746 13.5466 25.8594C13.5007 25.9727 13.4887 26.0975 13.5121 26.2178C13.5355 26.3382 13.5933 26.4487 13.678 26.5355C13.7918 26.6515 13.9459 26.7167 14.1065 26.7167C14.2671 26.7167 14.4211 26.6515 14.5349 26.5355Z" fill="#1A2E47"/>
</svg>
